<?xml version="1.0" encoding="UTF-8"?><svg xmlns="http://www.w3.org/2000/svg" xmlns:xlink="http://www.w3.org/1999/xlink" contentScriptType="text/ecmascript" width="375" zoomAndPan="magnify" contentStyleType="text/css" viewBox="0 0 375 374.999991" height="374.999991" preserveAspectRatio="xMidYMid meet" version="1.0"><defs><clipPath id="clip-0"><path d="M 54.488281 148 L 200 148 L 200 254.203125 L 54.488281 254.203125 Z M 54.488281 148 " clip-rule="nonzero"/></clipPath><clipPath id="clip-1"><path d="M 175 121.328125 L 320.242188 121.328125 L 320.242188 228 L 175 228 Z M 175 121.328125 " clip-rule="nonzero"/></clipPath><clipPath id="clip-2"><path d="M 166 182 L 173.707031 182 L 173.707031 221 L 166 221 Z M 166 182 " clip-rule="nonzero"/></clipPath><clipPath id="clip-3"><path d="M 127.199219 180 L 137 180 L 137 224 L 127.199219 224 Z M 127.199219 180 " clip-rule="nonzero"/></clipPath><clipPath id="clip-4"><path d="M 232 144 L 242 144 L 242 205.28125 L 232 205.28125 Z M 232 144 " clip-rule="nonzero"/></clipPath><clipPath id="clip-5"><path d="M 206.921875 155 L 216 155 L 216 195 L 206.921875 195 Z M 206.921875 155 " clip-rule="nonzero"/></clipPath><clipPath id="clip-6"><path d="M 245 153 L 253.429688 153 L 253.429688 197 L 245 197 Z M 245 153 " clip-rule="nonzero"/></clipPath></defs><g clip-path="url(#clip-0)"><path fill="rgb(100%, 34.118652%, 34.118652%)" d="M 54.484375 168.308594 L 94.703125 200.980469 L 94.703125 221.605469 C 94.703125 239.617188 109.226562 254.21875 127.144531 254.21875 L 167.390625 254.21875 C 185.304688 254.21875 199.828125 239.617188 199.828125 221.605469 L 199.828125 181.148438 C 199.828125 163.136719 185.304688 148.535156 167.390625 148.535156 L 127.144531 148.535156 C 109.226562 148.535156 94.703125 163.136719 94.703125 181.148438 L 94.703125 186.398438 L 54.484375 168.308594 " fill-opacity="1" fill-rule="nonzero"/></g><g clip-path="url(#clip-1)"><path fill="rgb(1.179504%, 59.609985%, 61.959839%)" d="M 247.566406 227.019531 L 207.320312 227.019531 C 204.632812 227.019531 202.023438 226.6875 199.527344 226.070312 C 199.726562 224.609375 199.828125 223.121094 199.828125 221.605469 L 199.828125 181.148438 C 199.828125 165.835938 189.335938 152.992188 175.179688 149.484375 C 177.347656 133.585938 190.910156 121.335938 207.320312 121.335938 L 247.566406 121.335938 C 265.480469 121.335938 280.003906 135.9375 280.003906 153.949219 L 280.003906 174.574219 L 320.226562 207.246094 L 280.003906 189.15625 L 280.003906 194.40625 C 280.003906 212.417969 265.480469 227.019531 247.566406 227.019531 " fill-opacity="1" fill-rule="nonzero"/></g><path fill="rgb(49.798584%, 33.329773%, 46.269226%)" d="M 199.527344 226.070312 C 185.375 222.5625 174.878906 209.71875 174.878906 194.40625 L 174.878906 153.949219 C 174.878906 152.433594 174.980469 150.945312 175.179688 149.484375 C 189.335938 152.992188 199.828125 165.835938 199.828125 181.148438 L 199.828125 221.605469 C 199.828125 223.121094 199.726562 224.609375 199.527344 226.070312 " fill-opacity="1" fill-rule="nonzero"/><path fill="rgb(100%, 100%, 100%)" d="M 144.707031 171.746094 C 144.988281 171.746094 145.269531 171.773438 145.542969 171.828125 C 145.820312 171.882812 146.085938 171.964844 146.347656 172.070312 C 146.605469 172.179688 146.855469 172.308594 147.085938 172.464844 C 147.320312 172.621094 147.539062 172.796875 147.738281 172.992188 C 147.9375 173.191406 148.113281 173.40625 148.269531 173.636719 C 148.425781 173.871094 148.558594 174.117188 148.664062 174.375 C 148.773438 174.632812 148.855469 174.898438 148.910156 175.171875 C 148.964844 175.445312 148.992188 175.722656 148.992188 176 L 148.992188 227.726562 C 148.992188 228.007812 148.964844 228.285156 148.910156 228.558594 C 148.855469 228.832031 148.773438 229.097656 148.664062 229.355469 C 148.558594 229.613281 148.425781 229.859375 148.269531 230.089844 C 148.113281 230.324219 147.9375 230.539062 147.738281 230.734375 C 147.539062 230.933594 147.320312 231.109375 147.085938 231.265625 C 146.855469 231.417969 146.605469 231.550781 146.347656 231.65625 C 146.085938 231.765625 145.820312 231.84375 145.542969 231.898438 C 145.269531 231.953125 144.988281 231.980469 144.707031 231.980469 C 144.425781 231.980469 144.148438 231.953125 143.871094 231.898438 C 143.597656 231.84375 143.328125 231.765625 143.070312 231.65625 C 142.808594 231.550781 142.5625 231.417969 142.328125 231.265625 C 142.09375 231.109375 141.878906 230.933594 141.679688 230.734375 C 141.480469 230.539062 141.300781 230.324219 141.144531 230.089844 C 140.988281 229.859375 140.859375 229.613281 140.75 229.355469 C 140.644531 229.097656 140.5625 228.832031 140.507812 228.558594 C 140.453125 228.285156 140.425781 228.007812 140.425781 227.726562 L 140.425781 176 C 140.425781 175.722656 140.453125 175.445312 140.507812 175.171875 C 140.5625 174.898438 140.644531 174.632812 140.75 174.375 C 140.859375 174.117188 140.988281 173.871094 141.144531 173.636719 C 141.300781 173.40625 141.480469 173.191406 141.679688 172.992188 C 141.878906 172.796875 142.09375 172.621094 142.328125 172.464844 C 142.5625 172.308594 142.808594 172.179688 143.070312 172.070312 C 143.328125 171.964844 143.597656 171.882812 143.871094 171.828125 C 144.148438 171.773438 144.425781 171.746094 144.707031 171.746094 Z M 144.707031 171.746094 " fill-opacity="1" fill-rule="nonzero"/><g clip-path="url(#clip-2)"><path fill="rgb(100%, 100%, 100%)" d="M 170.410156 182.679688 C 170.691406 182.679688 170.96875 182.707031 171.246094 182.761719 C 171.519531 182.816406 171.789062 182.898438 172.046875 183.003906 C 172.308594 183.109375 172.554688 183.242188 172.789062 183.398438 C 173.023438 183.550781 173.238281 183.726562 173.4375 183.925781 C 173.636719 184.125 173.816406 184.339844 173.972656 184.570312 C 174.128906 184.800781 174.257812 185.046875 174.367188 185.304688 C 174.472656 185.5625 174.554688 185.828125 174.609375 186.105469 C 174.664062 186.378906 174.691406 186.65625 174.691406 186.933594 L 174.691406 216.710938 C 174.691406 216.988281 174.664062 217.265625 174.609375 217.539062 C 174.554688 217.8125 174.472656 218.082031 174.367188 218.339844 C 174.257812 218.597656 174.128906 218.839844 173.972656 219.074219 C 173.816406 219.304688 173.636719 219.519531 173.4375 219.71875 C 173.238281 219.914062 173.023438 220.09375 172.789062 220.246094 C 172.554688 220.402344 172.308594 220.535156 172.046875 220.640625 C 171.789062 220.746094 171.519531 220.828125 171.246094 220.882812 C 170.96875 220.9375 170.691406 220.964844 170.410156 220.964844 C 170.128906 220.964844 169.847656 220.9375 169.574219 220.882812 C 169.296875 220.828125 169.03125 220.746094 168.769531 220.640625 C 168.511719 220.535156 168.261719 220.402344 168.03125 220.246094 C 167.796875 220.09375 167.578125 219.914062 167.378906 219.71875 C 167.179688 219.519531 167.003906 219.304688 166.847656 219.074219 C 166.691406 218.839844 166.558594 218.597656 166.453125 218.339844 C 166.34375 218.082031 166.261719 217.8125 166.207031 217.539062 C 166.152344 217.265625 166.125 216.988281 166.125 216.710938 L 166.125 186.933594 C 166.125 186.65625 166.152344 186.378906 166.207031 186.105469 C 166.261719 185.828125 166.34375 185.5625 166.453125 185.304688 C 166.558594 185.046875 166.691406 184.800781 166.847656 184.570312 C 167.003906 184.339844 167.179688 184.125 167.378906 183.925781 C 167.578125 183.726562 167.796875 183.550781 168.03125 183.398438 C 168.261719 183.242188 168.511719 183.109375 168.769531 183.003906 C 169.03125 182.898438 169.296875 182.816406 169.574219 182.761719 C 169.847656 182.707031 170.128906 182.679688 170.410156 182.679688 Z M 170.410156 182.679688 " fill-opacity="1" fill-rule="nonzero"/></g><g clip-path="url(#clip-3)"><path fill="rgb(100%, 100%, 100%)" d="M 127.574219 184.933594 C 127.574219 184.65625 127.601562 184.378906 127.65625 184.105469 C 127.710938 183.832031 127.792969 183.566406 127.898438 183.304688 C 128.007812 183.046875 128.140625 182.804688 128.296875 182.570312 C 128.453125 182.339844 128.628906 182.125 128.828125 181.925781 C 129.027344 181.730469 129.242188 181.550781 129.476562 181.398438 C 129.710938 181.242188 129.957031 181.109375 130.21875 181.003906 C 130.476562 180.898438 130.746094 180.816406 131.023438 180.761719 C 131.296875 180.707031 131.578125 180.679688 131.859375 180.679688 C 132.140625 180.679688 132.417969 180.707031 132.691406 180.761719 C 132.96875 180.816406 133.238281 180.898438 133.496094 181.003906 C 133.757812 181.109375 134.003906 181.242188 134.238281 181.398438 C 134.472656 181.550781 134.6875 181.730469 134.886719 181.925781 C 135.085938 182.125 135.261719 182.339844 135.417969 182.570312 C 135.574219 182.804688 135.707031 183.046875 135.816406 183.304688 C 135.921875 183.566406 136.003906 183.832031 136.058594 184.105469 C 136.113281 184.378906 136.140625 184.65625 136.140625 184.933594 L 136.140625 218.964844 C 136.140625 219.246094 136.113281 219.519531 136.058594 219.792969 C 136.003906 220.070312 135.921875 220.335938 135.816406 220.59375 C 135.707031 220.851562 135.574219 221.097656 135.417969 221.328125 C 135.261719 221.558594 135.085938 221.773438 134.886719 221.972656 C 134.6875 222.171875 134.472656 222.347656 134.238281 222.5 C 134.003906 222.65625 133.757812 222.789062 133.496094 222.894531 C 133.238281 223 132.96875 223.082031 132.691406 223.136719 C 132.417969 223.191406 132.140625 223.21875 131.859375 223.21875 C 131.578125 223.21875 131.296875 223.191406 131.023438 223.136719 C 130.746094 223.082031 130.476562 223 130.21875 222.894531 C 129.957031 222.789062 129.710938 222.65625 129.476562 222.5 C 129.242188 222.347656 129.027344 222.171875 128.828125 221.972656 C 128.628906 221.773438 128.453125 221.558594 128.296875 221.328125 C 128.140625 221.097656 128.007812 220.851562 127.898438 220.59375 C 127.792969 220.335938 127.710938 220.070312 127.65625 219.792969 C 127.601562 219.519531 127.574219 219.246094 127.574219 218.964844 Z M 127.574219 184.933594 " fill-opacity="1" fill-rule="nonzero"/></g><path fill="rgb(100%, 100%, 100%)" d="M 157.558594 189.1875 C 157.839844 189.1875 158.117188 189.214844 158.394531 189.269531 C 158.671875 189.324219 158.9375 189.40625 159.199219 189.511719 C 159.457031 189.617188 159.703125 189.75 159.9375 189.90625 C 160.171875 190.058594 160.386719 190.238281 160.585938 190.433594 C 160.785156 190.632812 160.964844 190.847656 161.121094 191.078125 C 161.277344 191.3125 161.410156 191.554688 161.515625 191.8125 C 161.625 192.070312 161.703125 192.339844 161.761719 192.613281 C 161.816406 192.886719 161.84375 193.164062 161.84375 193.441406 L 161.84375 210.457031 C 161.84375 210.738281 161.816406 211.011719 161.761719 211.289062 C 161.703125 211.5625 161.625 211.828125 161.515625 212.085938 C 161.410156 212.34375 161.277344 212.589844 161.121094 212.820312 C 160.964844 213.054688 160.785156 213.269531 160.585938 213.464844 C 160.386719 213.664062 160.171875 213.839844 159.9375 213.996094 C 159.703125 214.148438 159.457031 214.28125 159.199219 214.386719 C 158.9375 214.492188 158.671875 214.574219 158.394531 214.628906 C 158.117188 214.683594 157.839844 214.710938 157.558594 214.710938 C 157.277344 214.710938 157 214.683594 156.722656 214.628906 C 156.445312 214.574219 156.179688 214.492188 155.917969 214.386719 C 155.660156 214.28125 155.414062 214.148438 155.179688 213.996094 C 154.945312 213.839844 154.730469 213.664062 154.53125 213.464844 C 154.332031 213.269531 154.152344 213.054688 153.996094 212.820312 C 153.839844 212.589844 153.707031 212.34375 153.601562 212.085938 C 153.492188 211.828125 153.414062 211.5625 153.355469 211.289062 C 153.300781 211.011719 153.273438 210.738281 153.273438 210.457031 L 153.273438 193.441406 C 153.273438 193.164062 153.300781 192.886719 153.355469 192.613281 C 153.414062 192.339844 153.492188 192.070312 153.601562 191.8125 C 153.707031 191.554688 153.839844 191.3125 153.996094 191.078125 C 154.152344 190.847656 154.332031 190.632812 154.53125 190.433594 C 154.730469 190.238281 154.945312 190.058594 155.179688 189.90625 C 155.414062 189.75 155.660156 189.617188 155.917969 189.511719 C 156.179688 189.40625 156.445312 189.324219 156.722656 189.269531 C 157 189.214844 157.277344 189.1875 157.558594 189.1875 Z M 157.558594 189.1875 " fill-opacity="1" fill-rule="nonzero"/><g clip-path="url(#clip-4)"><path fill="rgb(100%, 100%, 100%)" d="M 236.910156 144.914062 C 236.628906 144.914062 236.347656 144.941406 236.074219 144.996094 C 235.796875 145.050781 235.527344 145.132812 235.269531 145.238281 C 235.007812 145.34375 234.761719 145.476562 234.527344 145.632812 C 234.292969 145.785156 234.078125 145.964844 233.878906 146.160156 C 233.679688 146.359375 233.503906 146.574219 233.347656 146.804688 C 233.191406 147.039062 233.058594 147.28125 232.949219 147.539062 C 232.84375 147.800781 232.761719 148.066406 232.707031 148.339844 C 232.652344 148.613281 232.625 148.890625 232.625 149.167969 L 232.625 200.894531 C 232.625 201.175781 232.652344 201.453125 232.707031 201.726562 C 232.761719 202 232.84375 202.265625 232.949219 202.523438 C 233.058594 202.78125 233.191406 203.027344 233.347656 203.257812 C 233.503906 203.492188 233.679688 203.707031 233.878906 203.902344 C 234.078125 204.101562 234.292969 204.277344 234.527344 204.433594 C 234.761719 204.585938 235.007812 204.71875 235.269531 204.824219 C 235.527344 204.933594 235.796875 205.011719 236.074219 205.066406 C 236.347656 205.121094 236.628906 205.148438 236.910156 205.148438 C 237.191406 205.148438 237.46875 205.121094 237.742188 205.066406 C 238.019531 205.011719 238.289062 204.933594 238.546875 204.824219 C 238.808594 204.71875 239.054688 204.585938 239.289062 204.433594 C 239.523438 204.277344 239.738281 204.101562 239.9375 203.902344 C 240.136719 203.707031 240.3125 203.492188 240.46875 203.257812 C 240.625 203.027344 240.757812 202.78125 240.867188 202.523438 C 240.972656 202.265625 241.054688 202 241.109375 201.726562 C 241.164062 201.453125 241.191406 201.175781 241.191406 200.894531 L 241.191406 149.167969 C 241.191406 148.890625 241.164062 148.613281 241.109375 148.339844 C 241.054688 148.066406 240.972656 147.800781 240.867188 147.539062 C 240.757812 147.28125 240.625 147.039062 240.46875 146.804688 C 240.3125 146.574219 240.136719 146.359375 239.9375 146.160156 C 239.738281 145.964844 239.523438 145.785156 239.289062 145.632812 C 239.054688 145.476562 238.808594 145.34375 238.546875 145.238281 C 238.289062 145.132812 238.019531 145.050781 237.742188 144.996094 C 237.46875 144.941406 237.191406 144.914062 236.910156 144.914062 Z M 236.910156 144.914062 " fill-opacity="1" fill-rule="nonzero"/></g><g clip-path="url(#clip-5)"><path fill="rgb(100%, 100%, 100%)" d="M 211.207031 155.847656 C 210.925781 155.847656 210.648438 155.875 210.371094 155.929688 C 210.09375 155.984375 209.828125 156.0625 209.566406 156.171875 C 209.308594 156.277344 209.0625 156.410156 208.828125 156.5625 C 208.59375 156.71875 208.378906 156.894531 208.179688 157.09375 C 207.980469 157.289062 207.800781 157.503906 207.644531 157.738281 C 207.488281 157.96875 207.355469 158.214844 207.25 158.472656 C 207.140625 158.730469 207.0625 158.996094 207.007812 159.269531 C 206.949219 159.546875 206.921875 159.820312 206.921875 160.101562 L 206.921875 189.878906 C 206.921875 190.15625 206.949219 190.433594 207.007812 190.707031 C 207.0625 190.980469 207.140625 191.246094 207.25 191.503906 C 207.355469 191.765625 207.488281 192.007812 207.644531 192.242188 C 207.800781 192.472656 207.980469 192.6875 208.179688 192.886719 C 208.378906 193.082031 208.59375 193.257812 208.828125 193.414062 C 209.0625 193.570312 209.308594 193.699219 209.566406 193.808594 C 209.828125 193.914062 210.09375 193.996094 210.371094 194.050781 C 210.648438 194.105469 210.925781 194.132812 211.207031 194.132812 C 211.488281 194.132812 211.765625 194.105469 212.042969 194.050781 C 212.320312 193.996094 212.585938 193.914062 212.847656 193.808594 C 213.105469 193.699219 213.351562 193.570312 213.585938 193.414062 C 213.820312 193.257812 214.039062 193.082031 214.234375 192.886719 C 214.433594 192.6875 214.613281 192.472656 214.769531 192.242188 C 214.925781 192.007812 215.058594 191.765625 215.164062 191.503906 C 215.273438 191.246094 215.355469 190.980469 215.410156 190.707031 C 215.464844 190.433594 215.492188 190.15625 215.492188 189.878906 L 215.492188 160.101562 C 215.492188 159.820312 215.464844 159.546875 215.410156 159.269531 C 215.355469 158.996094 215.273438 158.730469 215.164062 158.472656 C 215.058594 158.214844 214.925781 157.96875 214.769531 157.738281 C 214.613281 157.503906 214.433594 157.289062 214.234375 157.09375 C 214.039062 156.894531 213.820312 156.71875 213.585938 156.5625 C 213.351562 156.410156 213.105469 156.277344 212.847656 156.171875 C 212.585938 156.0625 212.320312 155.984375 212.042969 155.929688 C 211.765625 155.875 211.488281 155.847656 211.207031 155.847656 Z M 211.207031 155.847656 " fill-opacity="1" fill-rule="nonzero"/></g><g clip-path="url(#clip-6)"><path fill="rgb(100%, 100%, 100%)" d="M 254.042969 158.101562 C 254.042969 157.824219 254.015625 157.546875 253.960938 157.273438 C 253.90625 156.996094 253.824219 156.730469 253.714844 156.472656 C 253.609375 156.214844 253.476562 155.972656 253.320312 155.738281 C 253.164062 155.507812 252.988281 155.292969 252.789062 155.09375 C 252.589844 154.894531 252.371094 154.71875 252.140625 154.566406 C 251.90625 154.410156 251.65625 154.277344 251.398438 154.171875 C 251.136719 154.066406 250.871094 153.984375 250.59375 153.929688 C 250.320312 153.875 250.039062 153.847656 249.757812 153.847656 C 249.476562 153.847656 249.199219 153.875 248.921875 153.929688 C 248.648438 153.984375 248.378906 154.066406 248.121094 154.171875 C 247.859375 154.277344 247.613281 154.410156 247.378906 154.566406 C 247.144531 154.71875 246.929688 154.894531 246.730469 155.09375 C 246.53125 155.292969 246.355469 155.507812 246.199219 155.738281 C 246.042969 155.972656 245.910156 156.214844 245.800781 156.472656 C 245.695312 156.730469 245.613281 156.996094 245.558594 157.273438 C 245.503906 157.546875 245.476562 157.824219 245.476562 158.101562 L 245.476562 192.132812 C 245.476562 192.410156 245.503906 192.6875 245.558594 192.960938 C 245.613281 193.234375 245.695312 193.503906 245.800781 193.761719 C 245.910156 194.019531 246.042969 194.261719 246.199219 194.496094 C 246.355469 194.726562 246.53125 194.941406 246.730469 195.140625 C 246.929688 195.335938 247.144531 195.515625 247.378906 195.667969 C 247.613281 195.824219 247.859375 195.957031 248.121094 196.0625 C 248.378906 196.167969 248.648438 196.25 248.921875 196.304688 C 249.199219 196.359375 249.476562 196.386719 249.757812 196.386719 C 250.039062 196.386719 250.320312 196.359375 250.59375 196.304688 C 250.871094 196.25 251.136719 196.167969 251.398438 196.0625 C 251.65625 195.957031 251.90625 195.824219 252.140625 195.667969 C 252.371094 195.515625 252.589844 195.335938 252.789062 195.140625 C 252.988281 194.941406 253.164062 194.726562 253.320312 194.496094 C 253.476562 194.261719 253.609375 194.019531 253.714844 193.761719 C 253.824219 193.503906 253.90625 193.234375 253.960938 192.960938 C 254.015625 192.6875 254.042969 192.410156 254.042969 192.132812 Z M 254.042969 158.101562 " fill-opacity="1" fill-rule="nonzero"/></g><path fill="rgb(100%, 100%, 100%)" d="M 224.058594 162.355469 C 223.777344 162.355469 223.496094 162.382812 223.222656 162.4375 C 222.945312 162.492188 222.679688 162.574219 222.417969 162.679688 C 222.160156 162.785156 221.910156 162.917969 221.679688 163.074219 C 221.445312 163.226562 221.226562 163.402344 221.027344 163.601562 C 220.828125 163.800781 220.652344 164.015625 220.496094 164.246094 C 220.339844 164.476562 220.207031 164.722656 220.101562 164.980469 C 219.992188 165.238281 219.910156 165.503906 219.855469 165.78125 C 219.800781 166.054688 219.773438 166.332031 219.773438 166.609375 L 219.773438 183.625 C 219.773438 183.902344 219.800781 184.179688 219.855469 184.453125 C 219.910156 184.730469 219.992188 184.996094 220.101562 185.253906 C 220.207031 185.511719 220.339844 185.753906 220.496094 185.988281 C 220.652344 186.21875 220.828125 186.433594 221.027344 186.632812 C 221.226562 186.832031 221.445312 187.007812 221.679688 187.160156 C 221.910156 187.316406 222.160156 187.449219 222.417969 187.554688 C 222.679688 187.660156 222.945312 187.742188 223.222656 187.796875 C 223.496094 187.851562 223.777344 187.878906 224.058594 187.878906 C 224.339844 187.878906 224.617188 187.851562 224.894531 187.796875 C 225.167969 187.742188 225.4375 187.660156 225.695312 187.554688 C 225.957031 187.449219 226.203125 187.316406 226.4375 187.160156 C 226.671875 187.007812 226.886719 186.832031 227.085938 186.632812 C 227.285156 186.433594 227.464844 186.21875 227.621094 185.988281 C 227.777344 185.753906 227.90625 185.511719 228.015625 185.253906 C 228.121094 184.996094 228.203125 184.730469 228.257812 184.453125 C 228.3125 184.179688 228.339844 183.902344 228.339844 183.625 L 228.339844 166.609375 C 228.339844 166.332031 228.3125 166.054688 228.257812 165.78125 C 228.203125 165.503906 228.121094 165.238281 228.015625 164.980469 C 227.90625 164.722656 227.777344 164.476562 227.621094 164.246094 C 227.464844 164.015625 227.285156 163.800781 227.085938 163.601562 C 226.886719 163.402344 226.671875 163.226562 226.4375 163.074219 C 226.203125 162.917969 225.957031 162.785156 225.695312 162.679688 C 225.4375 162.574219 225.167969 162.492188 224.894531 162.4375 C 224.617188 162.382812 224.339844 162.355469 224.058594 162.355469 Z M 224.058594 162.355469 " fill-opacity="1" fill-rule="nonzero"/></svg>